<svg xmlns="http://www.w3.org/2000/svg" width="18" height="18" fill="none" viewBox="0 0 18 18">
  <path fill="#fff" fill-rule="evenodd" d="M7.653 16.809c2.048.157 3.952-.267 5.396-1.084 2.265-1.025 3.752-4.163 3.469-7.738-.335-4.225-3.016-7.46-5.99-7.225C8.212.946 6.403 3.18 5.873 6.154 2.859 6.674.592 8.5.413 10.837c-.228 2.974 3.013 5.648 7.24 5.972Zm.822-2.193c1.353.104 2.611-.177 3.566-.717 1.495-.677 2.477-2.75 2.29-5.11-.221-2.792-1.993-4.928-3.957-4.773-1.53.121-2.725 1.597-3.075 3.562-1.99.343-3.488 1.55-3.607 3.093-.15 1.965 1.991 3.73 4.783 3.945Z" clip-rule="evenodd"/>
  <ellipse cx="16.115" cy="16.359" fill="#fff" rx="1.502" ry="1.252" transform="rotate(-11.12 16.115 16.359)"/>
</svg>
